<svg width="24" height="23" viewBox="0 0 24 23" fill="none" xmlns="http://www.w3.org/2000/svg">
<path d="M1 21.6665H23" stroke="#969696" stroke-width="1.5" stroke-linecap="round" stroke-linejoin="round"/>
<path d="M4.88888 6H3.11112C2.5 6 2 6.50847 2 7.12994V16.8701C2 17.4915 2.5 18 3.11112 18H4.88888C5.5 18 6 17.4915 6 16.8701V7.12994C6 6.50847 5.5 6 4.88888 6Z" stroke="#969696" stroke-width="1.5" stroke-linecap="round" stroke-linejoin="round"/>
<path d="M12.8889 1H11.1111C10.5 1 10 1.55395 10 2.23099V16.769C10 17.4461 10.5 18 11.1111 18H12.8889C13.5 18 14 17.4461 14 16.769V2.23099C14 1.55395 13.5 1 12.8889 1Z" stroke="#969696" stroke-width="1.5" stroke-linecap="round" stroke-linejoin="round"/>
<path d="M20.8889 9H19.1111C18.5 9 18 9.23824 18 9.52941V17.4706C18 17.7618 18.5 18 19.1111 18H20.8889C21.5 18 22 17.7618 22 17.4706V9.52941C22 9.23824 21.5 9 20.8889 9Z" stroke="#969696" stroke-width="1.5" stroke-linecap="round" stroke-linejoin="round"/>
</svg>
