<svg width="150" height="41" viewBox="0 0 150 41" fill="none" xmlns="http://www.w3.org/2000/svg">
<path d="M139.004 2.25012H11.146C10.8039 2.25012 10.4659 2.25012 10.1246 2.252C9.83899 2.25387 9.55562 2.25932 9.26723 2.2639C8.64072 2.27131 8.01569 2.32669 7.39756 2.42957C6.78029 2.53468 6.18237 2.73285 5.624 3.01738C5.06632 3.30431 4.55674 3.67715 4.11377 4.12237C3.66847 4.56634 3.29728 5.0795 3.01447 5.64214C2.73088 6.20365 2.53424 6.80536 2.43133 7.42649C2.32745 8.04684 2.27155 8.67434 2.26414 9.30336C2.25548 9.5908 2.25456 9.87919 2.25 10.1667V31.8362C2.25456 32.1273 2.25548 32.4093 2.26413 32.7005C2.27154 33.3295 2.32744 33.957 2.43132 34.5773C2.53394 35.1988 2.7306 35.8008 3.01446 36.3625C3.29714 36.9234 3.66839 37.4344 4.11377 37.8759C4.55506 38.3231 5.06497 38.6962 5.624 38.981C6.18236 39.2663 6.78023 39.4656 7.39756 39.5723C8.01579 39.6744 8.64076 39.7298 9.26723 39.7381C9.55562 39.7445 9.83899 39.7481 10.1246 39.7481C10.4659 39.75 10.8039 39.75 11.146 39.75H139.004C139.339 39.75 139.68 39.75 140.015 39.7481C140.299 39.7481 140.591 39.7445 140.875 39.7381C141.5 39.7302 142.124 39.6748 142.741 39.5723C143.361 39.4649 143.961 39.2656 144.522 38.981C145.08 38.6961 145.59 38.323 146.031 37.8759C146.475 37.4327 146.847 36.922 147.133 36.3625C147.415 35.8004 147.609 35.1984 147.711 34.5773C147.815 33.9569 147.873 33.3295 147.884 32.7005C147.887 32.4093 147.887 32.1273 147.887 31.8362C147.895 31.4956 147.895 31.1569 147.895 30.8108V11.1902C147.895 10.8469 147.895 10.5063 147.887 10.1667C147.887 9.87919 147.887 9.5908 147.884 9.30332C147.873 8.67425 147.815 8.04689 147.711 7.42645C147.609 6.80568 147.414 6.20402 147.133 5.6421C146.557 4.51436 145.644 3.59639 144.522 3.01729C143.961 2.73346 143.361 2.53535 142.741 2.42948C142.124 2.32616 141.501 2.27075 140.875 2.26377C140.591 2.2592 140.299 2.2537 140.015 2.25187C139.68 2.25 139.339 2.25 139.004 2.25V2.25012Z" stroke="white"/>
<rect x="0.5" y="0.5" width="149" height="39" rx="5.5" fill="#080C18" stroke="white"/>
<path d="M25.3609 20.1197C25.3812 18.5292 26.2111 17.0602 27.5596 16.2271C26.705 15.0008 25.3249 14.2511 23.8357 14.2043C22.269 14.0391 20.7501 15.1463 19.9517 15.1463C19.1378 15.1463 17.9086 14.2207 16.5849 14.2481C14.8432 14.3046 13.2589 15.2755 12.4116 16.8055C10.6071 19.9446 11.9531 24.5581 13.6816 27.0955C14.5464 28.338 15.5571 29.7259 16.8796 29.6767C18.1738 29.6228 18.6571 28.8475 20.2193 28.8475C21.7669 28.8475 22.2204 29.6767 23.5697 29.6454C24.9584 29.6228 25.8334 28.3974 26.6678 27.1431C27.2892 26.2578 27.7674 25.2793 28.0846 24.2439C26.4352 23.5429 25.3628 21.9191 25.3609 20.1197Z" fill="white"/>
<path d="M22.8143 12.5361C23.5714 11.6228 23.9445 10.4489 23.8541 9.26367C22.6973 9.38575 21.6288 9.94128 20.8614 10.8196C20.1036 11.6861 19.7197 12.8198 19.7943 13.9708C20.9666 13.983 22.0797 13.4542 22.8143 12.5361Z" fill="white"/>
<path d="M45.3088 29.6809V21.1125H45.2523L41.7599 29.5921H40.4268L36.9253 21.1125H36.8697V29.6809H35.2314V18.0391H37.3116L41.061 27.2282H41.1248L44.8669 18.0391H46.9543V29.6809L45.3088 29.6809Z" fill="white"/>
<path fill-rule="evenodd" clip-rule="evenodd" d="M51.4797 24.7645C49.4715 24.8854 48.3398 25.7817 48.3398 27.2658C48.3406 27.9913 48.6462 28.6827 49.1813 29.1698C49.7163 29.6569 50.4312 29.8944 51.1498 29.8237C52.2519 29.8372 53.2737 29.2462 53.8159 28.282H53.856V29.6782H55.5179V23.8609C55.5179 22.191 54.1849 21.0859 52.1694 21.0859C50.195 21.0859 48.7736 22.1745 48.7253 23.708H50.3471C50.5544 22.9175 51.3147 22.4055 52.1211 22.5132C53.1735 22.5132 53.7922 23.0461 53.7922 23.99V24.6354L51.4797 24.7645ZM53.7918 25.8477V26.5013H53.7919C53.7689 27.0496 53.5266 27.5653 53.1198 27.9314C52.713 28.2975 52.1764 28.4831 51.6315 28.4459C50.7003 28.4459 50.0898 27.9616 50.0898 27.2191C50.0898 26.4931 50.6757 26.0418 51.7117 25.9767L53.7918 25.8477Z" fill="white"/>
<path d="M62.7997 24.1134C62.6425 23.1507 61.7766 22.4702 60.8088 22.5488C59.4758 22.5488 58.5929 23.6703 58.5929 25.4373C58.5929 27.2445 59.484 28.3331 60.8243 28.3331C61.7802 28.4293 62.6455 27.7615 62.7997 26.8087H64.4698C64.2537 28.6338 62.6304 29.9541 60.8088 29.786C58.3998 29.786 56.8262 28.1317 56.8262 25.4373C56.8262 22.7988 58.3997 21.0886 60.7924 21.0886C62.6275 20.9322 64.2521 22.2742 64.4543 24.1134H62.7997Z" fill="white"/>
<path fill-rule="evenodd" clip-rule="evenodd" d="M71.3198 26.5342H75.7362L76.7958 29.6809H78.6983L74.5152 18.0391H72.5718L68.3887 29.6809H70.2593L71.3198 26.5342ZM75.278 25.0814H71.7773L73.504 19.9746H73.5523L75.278 25.0814Z" fill="white"/>
<path fill-rule="evenodd" clip-rule="evenodd" d="M84.2072 29.7686C86.3275 29.7686 87.7325 28.0739 87.7325 25.4363C87.7325 22.806 86.3193 21.1031 84.1753 21.1031C83.0721 21.0674 82.0387 21.6439 81.4856 22.6037H81.4537V21.1919H79.7754V32.4877H81.5093V28.2836H81.5494C82.079 29.2494 83.1113 29.8262 84.2072 29.7686ZM83.7179 22.5879C85.0664 22.5879 85.9502 23.7177 85.9502 25.4361C85.9502 27.1701 85.0664 28.2916 83.7179 28.2916C82.3931 28.2916 81.502 27.1463 81.502 25.4361C81.502 23.7415 82.3931 22.5879 83.7179 22.5879Z" fill="white"/>
<path fill-rule="evenodd" clip-rule="evenodd" d="M93.5041 29.7686C95.6244 29.7686 97.0294 28.0739 97.0294 25.4363C97.0294 22.806 95.6162 21.1031 93.4722 21.1031C92.369 21.0674 91.3356 21.6439 90.7825 22.6037H90.7506V21.1919H89.0723V32.4877H90.8062V28.2836H90.8463C91.3759 29.2494 92.4082 29.8262 93.5041 29.7686ZM93.0147 22.5879C94.3632 22.5879 95.2471 23.7177 95.2471 25.4361H95.2471C95.2471 27.1701 94.3633 28.2916 93.0147 28.2916C91.6899 28.2916 90.7988 27.1463 90.7988 25.4361C90.7988 23.7415 91.6899 22.5879 93.0147 22.5879Z" fill="white"/>
<path d="M103.173 26.436C103.302 27.5905 104.418 28.3485 105.943 28.3485C107.405 28.3485 108.456 27.5904 108.456 26.5495C108.456 25.6459 107.822 25.1048 106.321 24.734L104.819 24.3705C102.691 23.8542 101.704 22.8544 101.704 21.2321C101.704 19.2234 103.446 17.8438 105.92 17.8438C108.368 17.8438 110.046 19.2234 110.103 21.2321H108.352C108.248 20.0703 107.292 19.369 105.895 19.369C104.498 19.369 103.542 20.0786 103.542 21.1113C103.542 21.9343 104.153 22.4186 105.646 22.7894L106.923 23.1043C109.3 23.6692 110.288 24.6287 110.288 26.3315C110.288 28.5096 108.561 29.8737 105.815 29.8737C103.245 29.8737 101.511 28.5416 101.398 26.4359L103.173 26.436Z" fill="white"/>
<path d="M114.029 19.1816V21.1903H115.635V22.57H114.029V27.2492C114.029 27.9762 114.351 28.3149 115.057 28.3149C115.247 28.3116 115.438 28.2981 115.627 28.2746V29.6461C115.31 29.7057 114.987 29.7327 114.664 29.7266C112.954 29.7266 112.287 29.0812 112.287 27.4351V22.57H111.059V21.1903H112.287V19.1816H114.029Z" fill="white"/>
<path fill-rule="evenodd" clip-rule="evenodd" d="M120.573 21.0859C118.132 21.0859 116.566 22.7641 116.566 25.4347C116.566 28.1126 118.116 29.7834 120.573 29.7834C123.03 29.7834 124.58 28.1126 124.58 25.4347C124.58 22.7641 123.022 21.0859 120.573 21.0859ZM120.575 22.5215C121.98 22.5215 122.815 23.6027 122.815 25.4347H122.815C122.815 27.274 121.98 28.347 120.575 28.347C119.17 28.347 118.334 27.274 118.334 25.4347C118.334 23.611 119.17 22.5215 120.575 22.5215Z" fill="white"/>
<path d="M126.01 21.1919H127.664V22.6366H127.704C127.934 21.7065 128.782 21.0665 129.735 21.1031C129.935 21.1024 130.135 21.1242 130.33 21.1681V22.7977C130.077 22.7202 129.814 22.6847 129.55 22.6924C129.041 22.6716 128.547 22.8758 128.2 23.2512C127.853 23.6266 127.686 24.1359 127.744 24.6452V29.6797H126.01L126.01 21.1919Z" fill="white"/>
<path fill-rule="evenodd" clip-rule="evenodd" d="M134.686 29.7834C136.596 29.7834 138.09 28.726 138.323 27.1852L136.677 27.1852C136.361 27.9727 135.567 28.4582 134.726 28.379C134.095 28.4023 133.484 28.1522 133.05 27.6922C132.615 27.2322 132.398 26.6067 132.453 25.9748V25.8696H138.42V25.2726C138.42 22.6991 136.95 21.0859 134.613 21.0859C132.237 21.0859 130.703 22.8126 130.703 25.475C130.703 28.1291 132.228 29.7834 134.686 29.7834ZM132.461 24.6508H132.461L132.461 24.6508C132.461 24.6508 132.461 24.6508 132.461 24.6508ZM136.684 24.6508H132.461C132.459 24.0777 132.686 23.5278 133.09 23.1233C133.494 22.7188 134.042 22.4931 134.612 22.4966C135.178 22.4844 135.723 22.7099 136.117 23.1188C136.51 23.5277 136.716 24.083 136.684 24.6508Z" fill="white"/>
<path fill-rule="evenodd" clip-rule="evenodd" d="M39.5067 10.0426C38.9993 9.50421 38.2783 9.22281 37.5422 9.27589H35.5312V14.8698H37.5422C39.2005 14.8698 40.1617 13.8425 40.1617 12.0554C40.2545 11.3198 40.0141 10.5811 39.5067 10.0426ZM37.4452 14.0814H36.3955V10.0691H37.4452C37.9684 10.0399 38.4773 10.2473 38.8326 10.6344C39.1878 11.0215 39.3524 11.5478 39.2811 12.0695C39.3579 12.5934 39.1958 13.1242 38.8396 13.5145C38.4834 13.9047 37.9712 14.113 37.4452 14.0814Z" fill="white"/>
<path fill-rule="evenodd" clip-rule="evenodd" d="M42.0701 10.867C41.4274 11.2678 41.0663 12.0001 41.1383 12.7568C41.0649 13.5142 41.4257 14.2479 42.069 14.6496C42.7124 15.0513 43.5268 15.0513 44.1702 14.6496C44.8136 14.2479 45.1743 13.5142 45.1009 12.7568C45.1729 12.0001 44.8119 11.2678 44.1691 10.867C43.5263 10.4662 42.7129 10.4662 42.0701 10.867ZM43.1222 11.3066C43.8402 11.3066 44.2493 11.8418 44.2493 12.7568H44.2493C44.2493 13.6756 43.8402 14.2102 43.1222 14.2102C42.4016 14.2102 41.9961 13.6792 41.9961 12.7568C41.9961 11.8418 42.4015 11.3066 43.1222 11.3066Z" fill="white"/>
<path d="M50.368 14.8699H49.5078L48.6395 11.7608H48.5739L47.7092 14.8699H46.8573L45.6992 10.6484H46.5402L47.2928 13.8697H47.3548L48.2186 10.6484H49.014L49.8778 13.8697H49.9434L50.6923 10.6484H51.5215L50.368 14.8699Z" fill="white"/>
<path d="M52.4941 10.6482H53.2923V11.3188H53.3543C53.5697 10.825 54.0732 10.523 54.608 10.5667C55.0221 10.5354 55.4279 10.695 55.7108 11.0005C55.9937 11.3059 56.123 11.724 56.0622 12.1368V14.8696H55.2331V12.346C55.2331 11.6676 54.9397 11.3302 54.3265 11.3302C54.0456 11.3171 53.773 11.4278 53.5802 11.6335C53.3874 11.8391 53.2935 12.1191 53.3233 12.4V14.8696H52.4941L52.4941 10.6482Z" fill="white"/>
<path d="M57.3849 9H58.2141V14.8694H57.3849V9Z" fill="white"/>
<path fill-rule="evenodd" clip-rule="evenodd" d="M60.2987 10.867C59.6559 11.2678 59.2948 12.0001 59.3668 12.7568C59.2934 13.5142 59.6542 14.2479 60.2975 14.6496C60.9409 15.0513 61.7554 15.0513 62.3987 14.6496C63.0421 14.2479 63.4028 13.5142 63.3294 12.7568C63.4015 12.0001 63.0404 11.2678 62.3976 10.867C61.7548 10.4662 60.9415 10.4662 60.2987 10.867ZM61.3508 11.3066C62.0687 11.3066 62.4778 11.8418 62.4778 12.7568H62.4779C62.4779 13.6756 62.0687 14.2102 61.3508 14.2102C60.6301 14.2102 60.2246 13.6792 60.2246 12.7568C60.2246 11.8418 60.63 11.3066 61.3508 11.3066Z" fill="white"/>
<path fill-rule="evenodd" clip-rule="evenodd" d="M65.7657 12.4153C64.7662 12.4776 64.2031 12.9156 64.2031 13.6755C64.2045 14.0358 64.3576 14.3787 64.6244 14.6194C64.8912 14.8601 65.2469 14.9762 65.6036 14.9389C66.1123 14.9626 66.5944 14.7094 66.8655 14.2761H66.9311V14.8694H67.7293V11.985C67.7293 11.0933 67.1352 10.5664 66.0819 10.5664C65.1289 10.5664 64.45 11.0315 64.3653 11.7566H65.168C65.2601 11.4581 65.5808 11.2874 66.0437 11.2874C66.6104 11.2874 66.9038 11.5391 66.9038 11.985V12.3494L65.7657 12.4153ZM66.905 12.9609V13.3139C66.8869 13.5829 66.7609 13.8331 66.5558 14.007C66.3507 14.181 66.0842 14.2639 65.8172 14.2367C65.3661 14.2367 65.0381 14.0156 65.0381 13.6357C65.0381 13.2635 65.3005 13.0658 65.8791 13.0269L66.905 12.9609Z" fill="white"/>
<path fill-rule="evenodd" clip-rule="evenodd" d="M70.5613 10.5779C69.4998 10.5779 68.8174 11.423 68.8174 12.7569C68.8174 14.094 69.4925 14.939 70.5613 14.939C71.1032 14.9591 71.6114 14.6754 71.8807 14.2025H71.9463V14.8694H72.7408V9H71.9117V11.3185H71.8497C71.5993 10.8417 71.0973 10.5531 70.5613 10.5779ZM70.7964 14.1909C70.0939 14.1909 69.6739 13.6521 69.6739 12.7567H69.6738C69.6738 11.8686 70.0984 11.3262 70.7964 11.3262C71.4907 11.3262 71.9271 11.8805 71.9271 12.7603C71.9271 13.6443 71.4952 14.1909 70.7964 14.1909Z" fill="white"/>
<path fill-rule="evenodd" clip-rule="evenodd" d="M77.1025 10.867C76.4597 11.2678 76.0985 12.0001 76.1705 12.7568C76.0972 13.5143 76.458 14.248 77.1014 14.6497C77.7448 15.0513 78.5593 15.0513 79.2027 14.6497C79.8461 14.248 80.2069 13.5143 80.1336 12.7568C80.2056 12.0001 79.8444 11.2678 79.2016 10.867C78.5587 10.4662 77.7453 10.4662 77.1025 10.867ZM78.1515 11.3066C78.8695 11.3066 79.2786 11.8418 79.2786 12.7568H79.2786C79.2786 13.6756 78.8695 14.2102 78.1515 14.2102C77.4309 14.2102 77.0254 13.6792 77.0254 12.7568C77.0254 11.8418 77.4308 11.3066 78.1515 11.3066Z" fill="white"/>
<path d="M81.2461 10.6482H82.0443V11.3188H82.1062C82.3217 10.825 82.8252 10.523 83.36 10.5667C83.7741 10.5354 84.1798 10.695 84.4627 11.0005C84.7456 11.3059 84.8749 11.724 84.8142 12.1368V14.8696H83.985V12.346C83.985 11.6676 83.6916 11.3302 83.0784 11.3302C82.7976 11.3171 82.525 11.4278 82.3322 11.6335C82.1393 11.8391 82.0455 12.1191 82.0752 12.4V14.8696H81.2461V10.6482Z" fill="white"/>
<path d="M89.5009 9.5957V10.6659H90.4112V11.3677H89.5009V13.5384C89.5009 13.9806 89.6822 14.1742 90.095 14.1742C90.2007 14.1739 90.3062 14.1675 90.4112 14.155V14.849C90.2623 14.8757 90.1114 14.89 89.9601 14.8915C89.0381 14.8915 88.6709 14.5656 88.6709 13.7517V11.3677H88.0039V10.6659H88.6709V9.5957H89.5009Z" fill="white"/>
<path d="M91.542 9H92.3639V11.3264H92.4295C92.6553 10.8283 93.1676 10.5259 93.7105 10.5701C94.1222 10.5476 94.5225 10.7107 94.8023 11.0151C95.0821 11.3194 95.2123 11.7333 95.1574 12.1439V14.8694H94.3274V12.3494C94.3274 11.6752 94.0149 11.3337 93.429 11.3337C93.1406 11.3099 92.8564 11.4153 92.6524 11.6216C92.4485 11.828 92.3455 12.1142 92.3712 12.4039V14.8694H91.542L91.542 9Z" fill="white"/>
<path fill-rule="evenodd" clip-rule="evenodd" d="M98.1735 14.9509C98.9946 15.0404 99.7615 14.5259 99.994 13.7296L99.1958 13.7296C98.9968 14.0881 98.602 14.2903 98.1963 14.2414C97.8835 14.2449 97.5837 14.1156 97.3706 13.8853C97.1576 13.6551 97.0512 13.3452 97.0774 13.032V12.9853H100.044V12.6946C100.044 11.369 99.3389 10.5665 98.1699 10.5665C97.6082 10.5617 97.0721 10.802 96.7005 11.2251C96.3288 11.6482 96.1582 12.2126 96.2328 12.772C96.1562 13.3298 96.3274 13.8933 96.7012 14.3129C97.0749 14.7325 97.6133 14.9658 98.1735 14.9509ZM99.2012 12.3673H97.0792C97.0754 12.0762 97.1888 11.7959 97.3936 11.59C97.5985 11.3841 97.8774 11.27 98.1671 11.2737C98.4529 11.2671 98.7282 11.3821 98.9252 11.5904C99.1221 11.7987 99.2224 12.0808 99.2012 12.3673Z" fill="white"/>
</svg>
