<svg width="22" height="22" viewBox="0 0 22 22" fill="none" xmlns="http://www.w3.org/2000/svg">
<path d="M20.1392 16.8025C20.1392 17.1325 20.0659 17.4717 19.91 17.8017C19.7542 18.1317 19.5525 18.4433 19.2867 18.7367C18.8375 19.2317 18.3425 19.5892 17.7834 19.8183C17.2334 20.0475 16.6375 20.1667 15.9959 20.1667C15.0609 20.1667 14.0617 19.9467 13.0075 19.4975C11.9534 19.0483 10.8992 18.4433 9.85421 17.6825C8.80004 16.9125 7.80087 16.06 6.84754 15.1158C5.90337 14.1625 5.05087 13.1633 4.29004 12.1183C3.53837 11.0733 2.93337 10.0283 2.49337 8.99251C2.05337 7.94751 1.83337 6.94834 1.83337 5.99501C1.83337 5.37168 1.94337 4.77584 2.16337 4.22584C2.38337 3.66668 2.73171 3.15334 3.21754 2.69501C3.80421 2.11751 4.44587 1.83334 5.12421 1.83334C5.38087 1.83334 5.63754 1.88834 5.86671 1.99834C6.10504 2.10834 6.31587 2.27334 6.48087 2.51168L8.60754 5.50918C8.77254 5.73834 8.89171 5.94918 8.97421 6.15084C9.05671 6.34334 9.10254 6.53584 9.10254 6.71001C9.10254 6.93001 9.03837 7.15001 8.91004 7.36084C8.79087 7.57168 8.61671 7.79168 8.39671 8.01168L7.70004 8.73584C7.59921 8.83668 7.55337 8.95584 7.55337 9.10251C7.55337 9.17584 7.56254 9.24001 7.58087 9.31334C7.60837 9.38668 7.63587 9.44168 7.65421 9.49668C7.81921 9.79918 8.10337 10.1933 8.50671 10.67C8.91921 11.1467 9.35921 11.6325 9.83587 12.1183C10.3309 12.6042 10.8075 13.0533 11.2934 13.4658C11.77 13.8692 12.1642 14.1442 12.4759 14.3092C12.5217 14.3275 12.5767 14.355 12.6409 14.3825C12.7142 14.41 12.7875 14.4192 12.87 14.4192C13.0259 14.4192 13.145 14.3642 13.2459 14.2633L13.9425 13.5758C14.1717 13.3467 14.3917 13.1725 14.6025 13.0625C14.8134 12.9342 15.0242 12.87 15.2534 12.87C15.4275 12.87 15.6109 12.9067 15.8125 12.9892C16.0142 13.0717 16.225 13.1908 16.4542 13.3467L19.4884 15.5008C19.7267 15.6658 19.8917 15.8583 19.9925 16.0875C20.0842 16.3167 20.1392 16.5458 20.1392 16.8025Z" stroke="#969696" stroke-width="1.5" stroke-miterlimit="10"/>
</svg>
