<svg width="22" height="22" viewBox="0 0 22 22" fill="none" xmlns="http://www.w3.org/2000/svg">
<path d="M16.4817 9.89084V13.5575C16.4817 13.7958 16.4725 14.025 16.445 14.245C16.2342 16.72 14.7767 17.9483 12.0909 17.9483H11.7242C11.495 17.9483 11.275 18.0583 11.1375 18.2417L10.0376 19.7083C9.55172 20.3592 8.76337 20.3592 8.27754 19.7083L7.17753 18.2417C7.05836 18.0858 6.79254 17.9483 6.59088 17.9483H6.22422C3.30005 17.9483 1.83337 17.2242 1.83337 13.5575V9.89084C1.83337 7.20501 3.07088 5.74751 5.53672 5.53667C5.75672 5.50917 5.98588 5.5 6.22422 5.5H12.0909C15.015 5.5 16.4817 6.96667 16.4817 9.89084Z" stroke="#969696" stroke-width="1.5" stroke-miterlimit="10" stroke-linecap="round" stroke-linejoin="round"/>
<path d="M20.1483 6.22418V9.89085C20.1483 12.5859 18.9108 14.0342 16.4449 14.245C16.4724 14.025 16.4816 13.7959 16.4816 13.5575V9.89085C16.4816 6.96668 15.0149 5.50001 12.0908 5.50001H6.22412C5.98579 5.50001 5.75662 5.50918 5.53662 5.53668C5.74745 3.07085 7.20495 1.83334 9.89079 1.83334H15.7574C18.6816 1.83334 20.1483 3.30002 20.1483 6.22418Z" stroke="#969696" stroke-width="1.5" stroke-miterlimit="10" stroke-linecap="round" stroke-linejoin="round"/>
<path d="M12.3708 12.1458H12.3791" stroke="#969696" stroke-width="2" stroke-linecap="round" stroke-linejoin="round"/>
<path d="M9.16258 12.1458H9.17083" stroke="#969696" stroke-width="2" stroke-linecap="round" stroke-linejoin="round"/>
<path d="M5.95421 12.1458H5.96246" stroke="#969696" stroke-width="2" stroke-linecap="round" stroke-linejoin="round"/>
</svg>
