<svg width="28" height="28" viewBox="0 0 28 28" fill="none" xmlns="http://www.w3.org/2000/svg">
<path d="M11.6667 19.775H7.24504C3.31337 19.775 2.33337 18.795 2.33337 14.8633V7.86333C2.33337 3.93166 3.31337 2.95166 7.24504 2.95166H19.53C23.4617 2.95166 24.4417 3.93166 24.4417 7.86333" stroke="#969696" stroke-width="1.5" stroke-linecap="round" stroke-linejoin="round"/>
<path d="M11.6666 25.0484V19.775" stroke="#969696" stroke-width="1.5" stroke-linecap="round" stroke-linejoin="round"/>
<path d="M2.33337 15.1083H11.6667" stroke="#969696" stroke-width="1.5" stroke-linecap="round" stroke-linejoin="round"/>
<path d="M7.86328 25.0483H11.6666" stroke="#969696" stroke-width="1.5" stroke-linecap="round" stroke-linejoin="round"/>
<path d="M25.6667 14.9333V21.595C25.6667 24.36 24.9784 25.0483 22.2134 25.0483H18.0717C15.3067 25.0483 14.6184 24.36 14.6184 21.595V14.9333C14.6184 12.1683 15.3067 11.48 18.0717 11.48H22.2134C24.9784 11.48 25.6667 12.1683 25.6667 14.9333Z" stroke="#969696" stroke-width="1.5" stroke-linecap="round" stroke-linejoin="round"/>
<path d="M20.1186 21.2917H20.129" stroke="#969696" stroke-width="2" stroke-linecap="round" stroke-linejoin="round"/>
</svg>
