<svg width="28" height="24" viewBox="0 0 28 24" fill="none" xmlns="http://www.w3.org/2000/svg">
<circle cx="12" cy="12" r="12" fill="#009879"/>
<path d="M19.9979 12.3975C19.9979 11.5709 17.2816 10.8815 13.6607 10.7178V8.85401L18.0944 8.84583V6H5.89493V8.86424L10.335 8.85606V10.7137C6.71621 10.8794 4 11.5689 4 12.3954C4 13.222 6.71621 13.9114 10.3371 14.0772V20H13.6629V14.0772C17.2816 13.9114 20 13.222 20 12.3954L19.9979 12.3975ZM11.9989 13.5902C8.05935 13.5902 4.86406 12.9928 4.86406 12.2543C4.86406 11.6241 7.19743 11.0963 10.335 10.9551V13.0992C10.8504 13.1381 11.4108 13.1586 11.9968 13.1586C12.5828 13.1586 13.1453 13.1381 13.6607 13.0992V10.9551C16.7983 11.0963 19.1317 11.6241 19.1317 12.2543C19.1317 12.9928 15.9364 13.5902 11.9968 13.5902H11.9989Z" fill="white"/>
<circle cx="22" cy="18" r="6" fill="#485681"/>
<path d="M22 16.4893L24.5714 18.0381L22 19.5878V16.4893Z" fill="white"/>
<path d="M21.9996 16.4893L19.4282 18.0381L21.9996 19.5878V16.4893Z" fill="white"/>
<path d="M21.9996 16.489L19.4282 18.0378L21.9996 13.7139V16.489Z" fill="white"/>
<path d="M22 16.489L24.5714 18.0378L22 13.7139V16.489Z" fill="white"/>
<path d="M22 20.1171V22.2844L24.5714 18.5674L22 20.1171Z" fill="white"/>
<path d="M21.9996 20.1171L19.4282 18.5674L21.9996 22.2844V20.1171Z" fill="white"/>
</svg>
