<svg width="40" height="41" viewBox="0 0 40 41" fill="none" xmlns="http://www.w3.org/2000/svg">
<circle cx="20" cy="20.75" r="20" fill="white"/>
<path fill-rule="evenodd" clip-rule="evenodd" d="M8.32627 19.6659C13.2497 17.6018 19.204 14.6643 24.3653 12.6795C29.129 10.9326 29.0497 11.4096 28.3348 16.1733C27.7786 19.9842 27.1442 23.7951 26.5087 27.6072C26.2708 29.4334 25.318 30.3861 23.3333 29.2748L17.1399 24.9076C16.2665 24.1928 16.5044 23.6377 17.2192 22.9228L22.9356 17.5236C24.4446 16.0147 23.7298 15.4596 21.9829 16.6502L14.122 21.9701C13.0106 22.7642 11.8189 22.7642 10.5489 22.3666L7.84933 21.4139C6.10246 20.7783 7.45283 20.0646 8.32627 19.667V19.6659Z" fill="#080C18"/>
</svg>
