<svg width="22" height="22" viewBox="0 0 22 22" fill="none" xmlns="http://www.w3.org/2000/svg">
<path d="M15.5834 16.8942H11.9167L7.83753 19.6075C7.23253 20.0108 6.41671 19.58 6.41671 18.8467V16.8942C3.66671 16.8942 1.83337 15.0609 1.83337 12.3109V6.81081C1.83337 4.06081 3.66671 2.22748 6.41671 2.22748H15.5834C18.3334 2.22748 20.1667 4.06081 20.1667 6.81081V12.3109C20.1667 15.0609 18.3334 16.8942 15.5834 16.8942Z" stroke="#969696" stroke-width="1.5" stroke-miterlimit="10" stroke-linecap="round" stroke-linejoin="round"/>
<path d="M11 10.4133V10.2209C11 9.59753 11.3851 9.26752 11.7701 9.00168C12.1459 8.74502 12.5217 8.41503 12.5217 7.81003C12.5217 6.96669 11.8434 6.28833 11 6.28833C10.1567 6.28833 9.47839 6.96669 9.47839 7.81003" stroke="#969696" stroke-width="1.5" stroke-linecap="round" stroke-linejoin="round"/>
<path d="M10.9958 12.6042H11.0041" stroke="#969696" stroke-width="1.5" stroke-linecap="round" stroke-linejoin="round"/>
</svg>
