<svg width="131" height="40" viewBox="0 0 131 40" fill="none" xmlns="http://www.w3.org/2000/svg">
<rect x="0.5" y="0.5" width="130" height="39" rx="5.5" fill="#080C18" stroke="white"/>
<path d="M46.2565 11.1705C46.2726 11.5139 46.2178 11.857 46.0954 12.179C45.9731 12.5009 45.7857 12.7949 45.5446 13.0432C45.2755 13.3191 44.9504 13.5359 44.5906 13.6794C44.2308 13.823 43.8444 13.8902 43.4566 13.8766C42.8681 13.872 42.2941 13.6963 41.8064 13.3713C41.3188 13.0463 40.9392 12.5866 40.7152 12.0497C40.4912 11.5128 40.4329 10.9226 40.5474 10.3531C40.6619 9.78366 40.9442 9.26019 41.359 8.84832C41.6316 8.57376 41.9584 8.35731 42.3192 8.21235C42.68 8.0674 43.0671 7.99703 43.4566 8.00559C43.8578 8.00427 44.2551 8.08393 44.624 8.23968C44.9674 8.37634 45.2732 8.59134 45.5161 8.86704L45.0131 9.36331C44.8237 9.14102 44.5844 8.96523 44.3143 8.84985C44.0441 8.73447 43.7505 8.68265 43.4566 8.6985C43.1601 8.69706 42.8664 8.7547 42.5931 8.86797C42.3197 8.98123 42.0724 9.14779 41.8659 9.35764C41.6594 9.5675 41.4979 9.81633 41.3913 10.0892C41.2846 10.3621 41.2349 10.6535 41.2451 10.9458C41.2389 11.3822 41.3638 11.8108 41.6042 12.1772C41.8446 12.5437 42.1895 12.8318 42.5956 13.0051C43.0018 13.1784 43.4508 13.2291 43.8861 13.1509C44.3214 13.0727 44.7235 12.8691 45.0416 12.5657C45.3336 12.2534 45.5021 11.848 45.5161 11.4233H43.4566V10.7491H46.2185C46.2438 10.8882 46.2565 11.0292 46.2565 11.1705ZM50.6034 8.82959H48.0408V10.6087H50.3756V11.2829H48.0408V13.062H50.6034V13.7549H47.2815V8.13668H50.6034V8.82959ZM53.7165 13.7549H52.9857V8.82959H51.3912V8.13668H55.349V8.82959H53.7165V13.7549ZM58.1394 13.7549V8.13668H58.8702V13.7549H58.1394ZM62.1162 13.7549H61.3854V8.82959H59.7909V8.13668H63.7013V8.82959H62.1162V13.7549ZM71.1139 13.0245C70.559 13.5688 69.8083 13.8744 69.0258 13.8744C68.2433 13.8744 67.4926 13.5688 66.9377 13.0245C66.3984 12.4613 66.098 11.7159 66.098 10.9411C66.098 10.1663 66.3984 9.42088 66.9377 8.85768C67.2112 8.58589 67.5365 8.37018 67.8949 8.22298C68.2533 8.07578 68.6376 8 69.0258 8C69.414 8 69.7983 8.07578 70.1567 8.22298C70.5151 8.37018 70.8404 8.58589 71.1139 8.85768C71.6553 9.41981 71.9572 10.1656 71.9572 10.9411C71.9572 11.7165 71.6553 12.4624 71.1139 13.0245ZM67.4787 12.5563C67.8896 12.96 68.4459 13.1867 69.0258 13.1867C69.6057 13.1867 70.162 12.96 70.5729 12.5563C70.9784 12.1153 71.203 11.5412 71.203 10.9458C71.203 10.3503 70.9784 9.77623 70.5729 9.33522C70.162 8.93154 69.6057 8.70489 69.0258 8.70489C68.4459 8.70489 67.8896 8.93154 67.4787 9.33522C67.0732 9.77623 66.8486 10.3503 66.8486 10.9458C66.8486 11.5412 67.0732 12.1153 67.4787 12.5563ZM72.9836 13.7549V8.13668H73.8758L76.6472 12.5095V8.13668H77.3781V13.7549H76.6188L73.7239 9.17604V13.7549H72.9836Z" fill="white" stroke="white" stroke-width="0.2875" stroke-miterlimit="10"/>
<path d="M65.9236 21.9505C65.1266 21.9542 64.3486 22.1907 63.6878 22.6302C63.0269 23.0697 62.5129 23.6925 62.2105 24.42C61.9081 25.1475 61.8309 25.9471 61.9887 26.7178C62.1465 27.4885 62.5321 28.1958 63.097 28.7505C63.6619 29.3052 64.3806 29.6824 65.1626 29.8344C65.9445 29.9864 66.7546 29.9065 67.4906 29.6048C68.2266 29.3031 68.8554 28.793 69.2978 28.139C69.7402 27.4849 69.9763 26.7163 69.9763 25.93C69.9841 25.4037 69.8844 24.8813 69.6832 24.3938C69.4821 23.9062 69.1835 23.4637 68.8054 23.0924C68.4272 22.721 67.9772 22.4286 67.4821 22.2324C66.9871 22.0362 66.457 21.9404 65.9236 21.9505ZM65.9236 28.3458C65.4335 28.3796 64.9443 28.2672 64.5198 28.0231C64.0953 27.7791 63.755 27.4147 63.5432 26.9773C63.3314 26.5399 63.2579 26.0497 63.3322 25.5706C63.4065 25.0914 63.6252 24.6454 63.9599 24.2905C64.2945 23.9355 64.7296 23.6882 65.2087 23.5805C65.6878 23.4728 66.1886 23.5097 66.6461 23.6866C67.1035 23.8634 67.4965 24.1719 67.7739 24.572C68.0513 24.9721 68.2003 25.4453 68.2015 25.93C68.2168 26.2371 68.1696 26.5442 68.0627 26.833C67.9558 27.1219 67.7913 27.3867 67.579 27.6119C67.3667 27.837 67.1109 28.018 66.8265 28.144C66.5422 28.2701 66.2352 28.3387 65.9236 28.3458ZM57.0873 21.9505C56.2899 21.9523 55.511 22.1873 54.8489 22.6257C54.1868 23.0641 53.6712 23.6862 53.3674 24.4136C53.0635 25.1409 52.985 25.9408 53.1417 26.7121C53.2984 27.4834 53.6834 28.1916 54.2479 28.7473C54.8124 29.3029 55.5311 29.681 56.3133 29.8338C57.0956 29.9865 57.9061 29.9072 58.6426 29.6057C59.3792 29.3042 60.0086 28.7942 60.4514 28.1399C60.8942 27.4857 61.1306 26.7167 61.1306 25.93C61.1383 25.4037 61.0386 24.8813 60.8374 24.3938C60.6363 23.9062 60.3377 23.4637 59.9596 23.0924C59.5814 22.721 59.1314 22.4286 58.6364 22.2324C58.1413 22.0362 57.6112 21.9404 57.0778 21.9505H57.0873ZM57.0873 28.3458C56.5969 28.3815 56.107 28.2708 55.6813 28.028C55.2556 27.7852 54.9139 27.4215 54.7006 26.9844C54.4873 26.5473 54.4124 26.057 54.4855 25.5773C54.5586 25.0976 54.7764 24.6507 55.1106 24.2948C55.4448 23.9389 55.8798 23.6906 56.359 23.582C56.8383 23.4734 57.3395 23.5098 57.7976 23.6862C58.2556 23.8626 58.6492 24.171 58.9271 24.5712C59.205 24.9714 59.3544 25.4449 59.3557 25.93C59.371 26.2371 59.3238 26.5442 59.2169 26.833C59.11 27.1219 58.9455 27.3867 58.7332 27.6119C58.5209 27.837 58.2651 28.018 57.9808 28.144C57.6965 28.2701 57.3894 28.3387 57.0778 28.3458H57.0873ZM46.5616 23.1771V24.8625H50.6618C50.5975 25.6564 50.263 26.4055 49.7127 26.9881C49.3025 27.4003 48.8093 27.7232 48.265 27.9361C47.7207 28.149 47.1372 28.2471 46.5521 28.2241C45.3438 28.2241 44.1851 27.7506 43.3307 26.9077C42.4763 26.0648 41.9963 24.9216 41.9963 23.7295C41.9963 22.5375 42.4763 21.3943 43.3307 20.5514C44.1851 19.7085 45.3438 19.235 46.5521 19.235C47.7079 19.2164 48.8241 19.6508 49.6557 20.4429L50.8611 19.2537C50.2997 18.6929 49.6298 18.2489 48.8913 17.9481C48.1528 17.6474 47.3606 17.4959 46.5616 17.5027C45.7178 17.4703 44.8761 17.6063 44.0869 17.9025C43.2977 18.1987 42.5772 18.6491 41.9686 19.2266C41.36 19.8041 40.8758 20.4968 40.5451 21.2633C40.2144 22.0299 40.0439 22.8543 40.0439 23.6874C40.0439 24.5205 40.2144 25.345 40.5451 26.1115C40.8758 26.878 41.36 27.5707 41.9686 28.1482C42.5772 28.7257 43.2977 29.1761 44.0869 29.4723C44.8761 29.7685 45.7178 29.9045 46.5616 29.8721C47.374 29.9083 48.1848 29.7724 48.9396 29.4736C49.6943 29.1748 50.3754 28.72 50.937 28.1398C51.9314 27.062 52.4623 25.6451 52.4177 24.1884C52.4207 23.8335 52.3889 23.4791 52.3227 23.1303L46.5616 23.1771ZM89.5661 24.488C89.3186 23.7696 88.8557 23.1422 88.2388 22.6891C87.6219 22.236 86.88 21.9784 86.1114 21.9505C85.5922 21.9495 85.0783 22.0535 84.6015 22.2562C84.1247 22.4589 83.6952 22.7559 83.3393 23.1289C82.9835 23.5019 82.709 23.9429 82.5328 24.4247C82.3566 24.9065 82.2824 25.4188 82.3149 25.93C82.3033 26.4533 82.3988 26.9736 82.5957 27.4597C82.7925 27.9458 83.0867 28.3878 83.4605 28.7593C83.8344 29.1308 84.2803 29.4241 84.7716 29.6217C85.263 29.8193 85.7896 29.9172 86.3202 29.9095C86.9841 29.9131 87.6385 29.7541 88.2249 29.4469C88.8112 29.1397 89.3112 28.6938 89.68 28.1492L88.3038 27.2128C88.0984 27.5506 87.8076 27.8301 87.4599 28.0237C87.1122 28.2174 86.7195 28.3187 86.3202 28.3177C85.909 28.3332 85.5027 28.2263 85.154 28.0108C84.8053 27.7954 84.5304 27.4815 84.365 27.1098L89.7655 24.9094L89.5661 24.488ZM84.0613 25.8176C84.042 25.528 84.0816 25.2375 84.1775 24.9632C84.2735 24.6888 84.424 24.4361 84.6203 24.2198C84.8165 24.0036 85.0545 23.8281 85.3203 23.7037C85.5861 23.5793 85.8744 23.5085 86.1683 23.4955C86.4745 23.4756 86.7798 23.5448 87.0464 23.6946C87.313 23.8445 87.5291 24.0682 87.6679 24.3382L84.0613 25.8176ZM79.6763 29.6755H81.4512V17.9709H79.6763V29.6755ZM76.772 22.84H76.7056C76.4381 22.545 76.1104 22.309 75.744 22.1476C75.3776 21.9863 74.9808 21.9031 74.5796 21.9036C73.5424 21.9533 72.5643 22.3947 71.848 23.1364C71.1317 23.8782 70.7322 24.8634 70.7322 25.8879C70.7322 26.9123 71.1317 27.8975 71.848 28.6393C72.5643 29.381 73.5424 29.8225 74.5796 29.8721C74.9818 29.8788 75.3806 29.7984 75.7479 29.6366C76.1152 29.4748 76.4421 29.2356 76.7056 28.9357H76.7625V29.5069C76.7625 31.0332 75.9368 31.8478 74.608 31.8478C74.1655 31.8376 73.736 31.6977 73.3743 31.4459C73.0126 31.1941 72.735 30.8418 72.5769 30.4339L71.0299 31.0706C71.3211 31.7695 71.8173 32.3666 72.4548 32.7854C73.0923 33.2041 73.8421 33.4254 74.608 33.4209C76.6866 33.4209 78.4045 32.213 78.4045 29.2728V22.1845H76.772V22.84ZM74.7409 28.3458C74.1287 28.2926 73.5589 28.015 73.1438 27.5679C72.7287 27.1207 72.4985 26.5363 72.4985 25.93C72.4985 25.3237 72.7287 24.7393 73.1438 24.2921C73.5589 23.845 74.1287 23.5674 74.7409 23.5142C75.0445 23.5295 75.3418 23.6047 75.6155 23.7352C75.8891 23.8657 76.1336 24.0489 76.3343 24.274C76.5351 24.4992 76.6882 24.7617 76.7846 25.0461C76.8809 25.3305 76.9186 25.631 76.8954 25.93C76.9213 26.2303 76.8852 26.5326 76.7893 26.8188C76.6933 27.1049 76.5396 27.3688 76.3373 27.5947C76.135 27.8205 75.8884 28.0035 75.6124 28.1326C75.3364 28.2617 75.0367 28.3342 74.7314 28.3458H74.7409ZM97.8804 17.9709H93.6379V29.6755H95.4127V25.2371H97.8899C98.3957 25.2729 98.9036 25.2056 99.3819 25.0393C99.8602 24.8729 100.299 24.6112 100.67 24.2703C101.041 23.9294 101.337 23.5168 101.54 23.058C101.742 22.5993 101.847 22.1043 101.847 21.604C101.847 21.1037 101.742 20.6087 101.54 20.15C101.337 19.6913 101.041 19.2786 100.67 18.9377C100.299 18.5968 99.8602 18.3351 99.3819 18.1687C98.9036 18.0024 98.3957 17.9351 97.8899 17.9709H97.8804ZM97.8804 23.5891H95.4032V19.6002H97.9184C98.4583 19.6002 98.9762 19.8118 99.358 20.1885C99.7398 20.5651 99.9542 21.076 99.9542 21.6087C99.9542 22.1414 99.7398 22.6522 99.358 23.0289C98.9762 23.4056 98.4583 23.6172 97.9184 23.6172L97.8804 23.5891ZM108.824 21.9036C108.178 21.8655 107.534 22.0145 106.973 22.3322C106.411 22.65 105.956 23.1226 105.663 23.6921L107.239 24.3382C107.394 24.0557 107.629 23.8239 107.916 23.671C108.202 23.518 108.528 23.4505 108.852 23.4767C109.078 23.4508 109.306 23.4693 109.524 23.5313C109.742 23.5933 109.945 23.6976 110.122 23.8379C110.298 23.9782 110.445 24.1519 110.553 24.3487C110.661 24.5455 110.728 24.7616 110.75 24.9843V25.106C110.18 24.8082 109.545 24.6539 108.9 24.6565C107.201 24.6565 105.483 25.5929 105.483 27.2877C105.5 27.6491 105.59 28.0035 105.748 28.33C105.906 28.6564 106.128 28.9483 106.403 29.1884C106.677 29.4284 106.997 29.6118 107.345 29.7276C107.692 29.8435 108.059 29.8894 108.425 29.8627C108.872 29.8944 109.319 29.8068 109.72 29.6091C110.121 29.4114 110.461 29.1109 110.703 28.7391H110.76V29.6755H112.468V25.1715C112.468 23.1209 110.893 21.9317 108.871 21.9317L108.824 21.9036ZM108.605 28.3177C108.026 28.3177 107.22 28.0275 107.22 27.3252C107.22 26.3888 108.226 26.0798 109.118 26.0798C109.682 26.0661 110.239 26.2019 110.731 26.4731C110.672 26.98 110.429 27.4487 110.047 27.7929C109.665 28.137 109.17 28.3334 108.653 28.3458L108.605 28.3177ZM118.695 22.1845L116.663 27.2596H116.607L114.499 22.1845H112.601L115.762 29.2822L113.958 33.2243H115.809L120.669 22.1845H118.695ZM102.74 29.6755H104.515V17.9709H102.74V29.6755Z" fill="white"/>
<path d="M11.1607 8.64367C10.8513 9.00989 10.6952 9.47872 10.7241 9.95458V30.6669C10.6952 31.1428 10.8513 31.6116 11.1607 31.9779L11.2271 32.0434L22.9867 20.4512V20.1797L11.2271 8.57812L11.1607 8.64367Z" fill="url(#paint0_linear_203_311)"/>
<path d="M26.8748 24.318L22.9834 20.4508V20.1793L26.8748 16.3027L26.9602 16.3496L31.6204 18.962C32.9491 19.7017 32.9491 20.919 31.6204 21.6681L26.9792 24.2712L26.8748 24.318Z" fill="url(#paint1_linear_203_311)"/>
<path d="M26.9885 24.264L22.9832 20.3125L11.1572 31.9796C11.4281 32.2145 11.7736 32.3486 12.134 32.3589C12.4945 32.3692 12.8473 32.2549 13.1314 32.0358L26.998 24.264" fill="url(#paint2_linear_203_311)"/>
<path d="M26.9882 16.3593L13.1216 8.58744C12.8375 8.36834 12.4847 8.25405 12.1243 8.26431C11.7638 8.27457 11.4183 8.40873 11.1475 8.64362L22.983 20.3107L26.9882 16.3593Z" fill="url(#paint3_linear_203_311)"/>
<path opacity="0.2" d="M26.8746 24.1797L13.1219 31.9047C12.8479 32.1068 12.5149 32.216 12.1728 32.216C11.8306 32.216 11.4977 32.1068 11.2237 31.9047L11.1572 31.9702L11.2237 32.0358C11.4971 32.2393 11.8303 32.3495 12.1728 32.3495C12.5153 32.3495 12.8485 32.2393 13.1219 32.0358L26.9885 24.264L26.8746 24.1797Z" fill="#080C18"/>
<path opacity="0.12" d="M11.1607 31.8465C10.8513 31.4803 10.6952 31.0115 10.7241 30.5356V30.6761C10.6952 31.152 10.8513 31.6208 11.1607 31.987L11.2271 31.9215L11.1607 31.8465ZM31.6237 21.5278L26.8781 24.1777L26.9635 24.262L31.6237 21.6589C31.8881 21.5364 32.1151 21.3472 32.2817 21.1104C32.4484 20.8737 32.5488 20.5978 32.5728 20.3105C32.5194 20.5715 32.4061 20.8169 32.2416 21.028C32.0771 21.239 31.8657 21.41 31.6237 21.5278Z" fill="#080C18"/>
<path opacity="0.25" d="M13.1237 8.71917L31.622 19.0941C31.864 19.2119 32.0753 19.3829 32.2399 19.5939C32.4044 19.805 32.5177 20.0504 32.5711 20.3114C32.5471 20.0241 32.4467 19.7482 32.28 19.5115C32.1134 19.2747 31.8864 19.0855 31.622 18.963L13.1237 8.58808C11.7949 7.84835 10.7129 8.46635 10.7129 9.96454V10.105C10.7414 8.59745 11.8044 7.97945 13.1237 8.71917Z" fill="white"/>
<defs>
<linearGradient id="paint0_linear_203_311" x1="21.9427" y1="9.73922" x2="6.23194" y2="25.664" gradientUnits="userSpaceOnUse">
<stop stop-color="#00A0FF"/>
<stop offset="0.01" stop-color="#00A1FF"/>
<stop offset="0.26" stop-color="#00BEFF"/>
<stop offset="0.51" stop-color="#00D2FF"/>
<stop offset="0.76" stop-color="#00DFFF"/>
<stop offset="1" stop-color="#00E3FF"/>
</linearGradient>
<linearGradient id="paint1_linear_203_311" x1="33.3573" y1="20.3104" x2="10.3981" y2="20.3104" gradientUnits="userSpaceOnUse">
<stop stop-color="#FFE000"/>
<stop offset="0.41" stop-color="#FFBD00"/>
<stop offset="0.78" stop-color="#FFA500"/>
<stop offset="1" stop-color="#FF9C00"/>
</linearGradient>
<linearGradient id="paint2_linear_203_311" x1="24.815" y1="22.4661" x2="3.50524" y2="44.0567" gradientUnits="userSpaceOnUse">
<stop stop-color="#FF3A44"/>
<stop offset="1" stop-color="#C31162"/>
</linearGradient>
<linearGradient id="paint3_linear_203_311" x1="8.17672" y1="1.75198" x2="17.6893" y2="11.3941" gradientUnits="userSpaceOnUse">
<stop stop-color="#32A071"/>
<stop offset="0.07" stop-color="#2DA771"/>
<stop offset="0.48" stop-color="#15CF74"/>
<stop offset="0.8" stop-color="#06E775"/>
<stop offset="1" stop-color="#00F076"/>
</linearGradient>
</defs>
</svg>
