<svg width="40" height="41" viewBox="0 0 40 41" fill="none" xmlns="http://www.w3.org/2000/svg">
<circle cx="20" cy="20.75" r="20" fill="white"/>
<path fill-rule="evenodd" clip-rule="evenodd" d="M15.4066 10.75H24.6414C27.6082 10.75 30.048 13.1898 30.048 16.1566V25.3434C30.048 28.3102 27.6082 30.75 24.6414 30.75H15.4066C12.4398 30.75 10 28.3102 10 25.3434V16.1566C10 13.1898 12.4398 10.75 15.4066 10.75ZM25.4066 14.243C26.0288 14.243 26.555 14.7692 26.555 15.3914C26.555 16.0135 26.0288 16.5397 25.4066 16.5397C24.7365 16.5397 24.2583 16.0135 24.2583 15.3914C24.2583 14.7692 24.7365 14.243 25.4066 14.243ZM20 15.2954H20.048C23.0149 15.2954 25.5026 17.7831 25.5026 20.75C25.5026 23.7639 23.0149 26.2046 20.048 26.2046H20C17.0331 26.2046 14.5934 23.7649 14.5934 20.75C14.5934 17.7831 17.0331 15.2954 20 15.2954ZM20 17.161H20.048C22.0096 17.161 23.6361 18.7875 23.6361 20.7491C23.6361 22.7587 22.0096 24.3852 20.048 24.3852H20C18.0384 24.3852 16.4119 22.7587 16.4119 20.7491C16.4119 18.7875 18.0384 17.161 20 17.161ZM15.4546 12.4725H24.5934C26.651 12.4725 28.3255 14.147 28.3255 16.2046V25.2954C28.3255 27.353 26.651 29.0275 24.5934 29.0275H15.4546C13.397 29.0275 11.7225 27.353 11.7225 25.2954V16.2046C11.7225 14.147 13.397 12.4725 15.4546 12.4725Z" fill="#080C18"/>
</svg>
