<svg width="40" height="41" viewBox="0 0 40 41" fill="none" xmlns="http://www.w3.org/2000/svg">
<circle cx="20" cy="20.75" r="20" fill="white"/>
<path fill-rule="evenodd" clip-rule="evenodd" d="M19.6651 9.75C26.0838 9.75 31.3302 14.0092 31.3302 19.1935C31.3302 21.9713 29.9108 24.3779 27.5652 26.1064C22.6888 30.3035 19.9731 31.4758 19.9731 31.4758C18.9238 32.0309 18.7388 31.7229 18.8618 30.7357C18.9847 30.1185 19.1089 29.3163 19.1089 29.3163C19.2318 28.7612 18.6147 28.6371 18.3687 28.5762H18.2457C12.4442 28.0199 8 24.0078 8 19.1935C8 14.0092 13.2464 9.75 19.6651 9.75Z" fill="#080C18"/>
<path fill-rule="evenodd" clip-rule="evenodd" d="M11.9501 21.9095H15.5921V20.9223H13.0614V16.6631H11.9501V21.9095ZM16.2093 21.9095H17.3206V16.6631H16.2093V21.9095ZM21.8878 16.6631V19.873L19.4192 16.6631H18.4929V21.9095H19.6042V18.7617L22.0728 21.9095H22.9991V16.6631H21.8878ZM25.2827 20.9832V19.7489H27.6284V18.8226H25.2827V17.6503H27.6284V16.6631H24.1725V21.9095H27.6284V20.9832H25.2827Z" fill="white"/>
</svg>
