<svg width="42" height="10" viewBox="0 0 42 10" fill="none" xmlns="http://www.w3.org/2000/svg">
<path d="M5.35931 5.28657C5.64588 5.28657 5.89151 5.24563 6.09621 5.16376C6.30226 5.04094 6.46602 4.91812 6.58884 4.75437C6.71165 4.59061 6.83447 4.42686 6.87541 4.18122C6.95592 3.97653 6.99823 3.77047 6.99823 3.52484C6.99823 3.32014 6.95729 3.07451 6.87541 2.86845C6.79353 2.66376 6.66935 2.45906 6.50696 2.25437C6.3432 2.09061 6.17945 1.96779 5.93381 1.84498C5.72912 1.72216 5.44255 1.68122 5.15598 1.68122H2.81837V10H0.892876V0H5.35931C5.85057 0 6.30226 0.0818777 6.75259 0.286572C7.16334 0.450328 7.53179 0.695961 7.85931 1.02484C8.18682 1.35235 8.43245 1.7208 8.63851 2.17249C8.80226 2.58188 8.88414 3.03357 8.88414 3.52484C8.88414 4.0161 8.80226 4.50873 8.63851 4.91812C8.47339 5.32751 8.26869 5.69596 7.94118 6.02484C7.61367 6.31141 7.20428 6.55841 6.71165 6.7631C6.22039 6.92686 5.68818 7.00873 5.0318 7.00873H4.45865V5.28794H5.36067L5.35931 5.28657Z" fill="#045DE9"/>
<path d="M12.3653 5.12145H14.2921C14.4559 5.12145 14.6606 5.08051 14.8243 4.99864C15.029 4.9577 15.1928 4.83488 15.3156 4.71206C15.4807 4.54831 15.6022 4.38455 15.6841 4.17986C15.8069 3.97516 15.8478 3.72953 15.8478 3.44159C15.8478 3.27784 15.8082 3.11408 15.7673 2.90939C15.7264 2.70469 15.6854 2.54094 15.5612 2.33624C15.4384 2.17249 15.3156 2.00873 15.1109 1.88592C14.9062 1.7631 14.6196 1.68122 14.2921 1.68122H11.6693V10H9.74383V0H14.2921C14.8243 0 15.2747 0.0818777 15.6854 0.245633C16.1357 0.409389 16.5042 0.655022 16.7921 0.941594C17.0787 1.2691 17.3243 1.63892 17.4895 2.04831C17.6532 2.4577 17.7351 2.95033 17.7351 3.44159C17.7351 4.17986 17.5713 4.83488 17.2029 5.40939C16.7921 5.98253 16.3009 6.39329 15.6868 6.63892C16.5056 7.74563 17.3257 8.85098 18.1458 9.99864H15.8915C15.4821 9.46643 15.0727 8.93423 14.7029 8.40066C13.925 7.33488 13.1472 6.22953 12.3666 5.12282L12.3653 5.12145Z" fill="#045DE9"/>
<path d="M21.2764 9.99864H19.3509V0H21.2764V9.99864Z" fill="#045DE9"/>
<path d="M32.5236 0V9.99864H30.6391V4.91812L27.4841 8.68723C25.8042 6.67986 24.1653 4.63019 22.4854 2.62282V0H22.6083L27.4841 5.77784L32.4008 0H32.5236ZM24.3686 7.53957V9.99864H22.4841V5.20469L24.3686 7.54094V7.53957Z" fill="#045DE9"/>
<path d="M35.6567 1.67986V4.17986H40.493V5.90066H35.6567V8.27784H41.1071V9.99864H33.7313V0H41.1071V1.67986H35.6567Z" fill="#045DE9"/>
</svg>
