<svg width="40" height="10" viewBox="0 0 40 10" fill="none" xmlns="http://www.w3.org/2000/svg">
<path d="M4.91312 5.27699C5.18955 5.27699 5.42648 5.2375 5.62393 5.15853C5.82269 5.04006 5.98065 4.92159 6.09912 4.76363C6.21758 4.60568 6.33605 4.44772 6.37554 4.21078C6.4532 4.01334 6.49401 3.81457 6.49401 3.57764C6.49401 3.38019 6.45452 3.14326 6.37554 2.94449C6.29656 2.74705 6.17678 2.5496 6.02014 2.35215C5.86218 2.1942 5.70422 2.07573 5.46729 1.95726C5.26984 1.83879 4.99342 1.7993 4.71699 1.7993H2.46216V9.82352H0.604843V0.177612H4.91312C5.38699 0.177612 5.82269 0.256591 6.25707 0.454037C6.65328 0.611994 7.00869 0.84893 7.3246 1.16616C7.64051 1.48207 7.87745 1.83748 8.07621 2.27318C8.23417 2.66807 8.31315 3.10377 8.31315 3.57764C8.31315 4.05151 8.23417 4.5267 8.07621 4.92159C7.91694 5.31648 7.71949 5.67189 7.40358 5.98912C7.08767 6.26554 6.69277 6.50379 6.21758 6.70124C5.74371 6.8592 5.23035 6.93818 4.59721 6.93818H4.04436V5.27831H4.91444L4.91312 5.27699Z" fill="#045DE9"/>
<path d="M11.6711 5.11904H13.5297C13.6877 5.11904 13.8851 5.07955 14.0431 5.00057C14.2405 4.96108 14.3985 4.84261 14.5169 4.72414C14.6762 4.56619 14.7934 4.40823 14.8723 4.21078C14.9908 4.01334 15.0303 3.7764 15.0303 3.49866C15.0303 3.3407 14.9921 3.18275 14.9526 2.9853C14.9131 2.78785 14.8737 2.6299 14.7539 2.43245C14.6354 2.27449 14.5169 2.11654 14.3195 1.99807C14.122 1.8796 13.8456 1.80062 13.5297 1.80062H10.9998V9.82484H9.14244V0.177612H13.5297C14.0431 0.177612 14.4774 0.256591 14.8737 0.414548C15.308 0.572505 15.6634 0.809441 15.9412 1.08587C16.2176 1.40178 16.4545 1.7585 16.6138 2.15339C16.7718 2.54829 16.8507 3.02347 16.8507 3.49734C16.8507 4.20947 16.6928 4.8413 16.3374 5.39415C15.9412 5.947 15.4673 6.3432 14.875 6.58014C15.6648 7.64767 16.4559 8.71388 17.247 9.82089H15.0724C14.6775 9.30753 14.2826 8.79417 13.9259 8.2795C13.1756 7.25146 12.4253 6.18525 11.6724 5.11772L11.6711 5.11904Z" fill="#045DE9"/>
<path d="M22.5214 1.73884C22.087 1.73884 21.6908 1.81782 21.2972 2.01527C20.901 2.17323 20.5851 2.41016 20.3087 2.72739C19.9927 3.00382 19.7953 3.36054 19.5979 3.75543C19.4386 4.15032 19.3596 4.58602 19.3596 5.0204C19.3596 5.45478 19.4386 5.84968 19.5979 6.24589C19.7953 6.64078 19.9927 6.99618 20.3087 7.31341C20.5851 7.62933 20.901 7.86626 21.2972 8.02422C21.6921 8.22167 22.087 8.30064 22.5214 8.30064C22.9558 8.30064 23.3507 8.22167 23.7469 8.02422C24.1431 7.86626 24.459 7.62933 24.7354 7.31341C25.0513 6.9975 25.2488 6.6421 25.4067 6.24589C25.6055 5.84968 25.6832 5.45478 25.6832 5.0204C25.6832 4.58602 25.6055 4.15032 25.4067 3.75543C25.2488 3.36054 25.0513 3.00382 24.7354 2.72739C24.459 2.41148 24.1431 2.17454 23.7469 2.01527C23.3507 1.81782 22.9571 1.73884 22.5214 1.73884ZM22.5214 10C21.8106 10 21.1774 9.88153 20.5851 9.60511C19.9519 9.36817 19.4386 9.01277 19.0042 8.53758C18.529 8.10188 18.1749 7.54903 17.8959 6.95538C17.6589 6.36304 17.501 5.6904 17.501 5.01909C17.501 4.30696 17.6589 3.67513 17.8959 3.0828C18.1736 2.44965 18.529 1.93629 19.0042 1.46242C19.4386 1.02804 19.9519 0.671318 20.5851 0.394893C21.1774 0.118468 21.8106 0 22.5214 0C23.194 0 23.8653 0.118468 24.459 0.394893C25.0513 0.671318 25.6055 1.02804 26.0399 1.46242C26.5137 1.93629 26.8691 2.45097 27.1074 3.0828C27.3838 3.67513 27.5036 4.30828 27.5036 5.01909C27.5036 5.6904 27.3851 6.36304 27.1074 6.95538C26.8705 7.54903 26.5151 8.10188 26.0399 8.53758C25.6055 9.01145 25.0526 9.36817 24.459 9.60511C23.8666 9.88153 23.194 10 22.5214 10Z" fill="#045DE9"/>
<path d="M33.4665 5.04006L29.79 0.177612H32.083L39.3162 9.82221H37.0232L34.613 6.46299L32.162 9.82221H29.869L33.4665 5.04006ZM35.6002 2.23369L37.1021 0.178929H39.3951L36.7467 3.7356L35.6002 2.23369Z" fill="#045DE9"/>
</svg>
