<svg width="75" height="10" viewBox="0 0 75 10" fill="none" xmlns="http://www.w3.org/2000/svg">
<path d="M0.403214 8.57026L1.36873 7.06276C1.87178 7.42019 2.3356 7.69714 2.83865 7.93588C3.34169 8.17326 3.8826 8.29195 4.42351 8.29195C4.73318 8.29195 4.96441 8.29195 5.197 8.21282C5.42824 8.1337 5.62162 8.01364 5.77713 7.89495C5.93128 7.77626 6.04758 7.65757 6.12466 7.49795C6.20174 7.3397 6.24096 7.18008 6.24096 7.02183C6.24096 6.86357 6.16388 6.66439 6.04758 6.5457C5.93128 6.42701 5.77713 6.30832 5.5824 6.18963C5.38903 6.11051 5.15779 6.03138 4.88733 5.99045C4.6561 5.91132 4.38429 5.87176 4.07597 5.79127C3.88125 5.79127 3.68922 5.75171 3.41877 5.67258C3.18753 5.63302 2.91708 5.55389 2.64527 5.47476C2.37482 5.39564 2.14358 5.27694 1.87178 5.15689C1.59997 5.0382 1.36873 4.83902 1.17536 4.6412C0.981983 4.44338 0.788609 4.206 0.672314 3.88813C0.556019 3.61119 0.47894 3.29332 0.47894 2.89632C0.47894 2.34106 0.595234 1.86494 0.826472 1.46794C1.05771 1.1105 1.32952 0.792633 1.67705 0.594816C2.02594 0.395634 2.41268 0.237381 2.8373 0.11869C3.26326 0.0395634 3.68787 0 4.07462 0C4.46137 0 4.8089 0.0395634 5.11857 0.0791269C5.42824 0.11869 5.73791 0.197817 6.00837 0.317872C6.27882 0.436562 6.51141 0.555252 6.78186 0.71487C7.0131 0.873124 7.28491 1.03274 7.59322 1.23056L6.58849 2.6985C6.12331 2.38063 5.69869 2.14325 5.31195 1.98499C4.88733 1.82674 4.46137 1.70805 3.99754 1.70805C3.84203 1.70805 3.65001 1.74761 3.45664 1.78718C3.26326 1.82674 3.06989 1.90723 2.91573 1.98636C2.721 2.06548 2.56684 2.18554 2.45055 2.30423C2.3356 2.46248 2.29639 2.6221 2.29639 2.81992C2.29639 3.01774 2.37347 3.17735 2.48976 3.29604C2.64527 3.41473 2.79943 3.53342 3.03067 3.61392C3.26326 3.73261 3.49585 3.81173 3.72709 3.8513C3.99754 3.93042 4.23013 3.96999 4.50058 4.05048C4.6561 4.09004 4.88733 4.1296 5.11992 4.16917C5.35116 4.20873 5.62297 4.28786 5.89342 4.36699C6.16388 4.44611 6.39647 4.52524 6.66692 4.68486C6.93737 4.80355 7.16996 4.9618 7.36334 5.20055C7.55671 5.39836 7.71087 5.63711 7.82717 5.95362C7.98268 6.27149 8.02054 6.62892 8.02054 7.06412C8.02054 7.54025 7.94346 7.97681 7.78795 8.37381C7.59458 8.72988 7.36334 9.04775 7.05367 9.28649C6.70614 9.52524 6.3586 9.72306 5.89342 9.84175C5.46881 9.9618 4.96577 10 4.46272 10C3.95968 10 3.53507 10 3.14832 9.92087C2.76157 9.84175 2.4519 9.72169 2.14358 9.603C1.83391 9.48431 1.52424 9.32606 1.25379 9.12688C0.983336 8.96862 0.712883 8.77081 0.403214 8.57162V8.57026Z" fill="#045DE9"/>
<path d="M16.0395 1.68196H13.2389V9.99847H11.3295V1.68196H8.48708V0.00256348H16.0395V1.68196Z" fill="#045DE9"/>
<path d="M18.1639 6.76109H19.2187L20.072 8.40093H17.2295L16.498 9.99847H14.4276L19.5027 0.00256348H19.665L24.7414 9.99847H22.7116L19.5838 3.73108L18.1639 6.76109Z" fill="#045DE9"/>
<path d="M34.2262 9.99847L25.8204 2.29724V0.00256348H26.0233L32.5602 6.02439V0.00256348H34.429V9.99847H34.2262ZM27.7299 3.95209V9.99847H25.8204V2.23039L27.7299 3.95072V3.95209Z" fill="#045DE9"/>
<path d="M37.9003 8.27814H39.9301C40.2952 8.27814 40.6198 8.23722 40.9862 8.15536C41.3513 8.07351 41.6759 7.90979 41.9612 7.66423C42.2858 7.45959 42.5292 7.09124 42.6928 6.68196C42.8956 6.27269 42.9768 5.69834 42.9768 5.00256C42.9768 4.30679 42.8956 3.73244 42.6928 3.32316C42.5305 2.87296 42.2871 2.54554 41.9612 2.29861C41.6772 2.09397 41.3527 1.93026 40.9862 1.8484C40.6211 1.76655 40.256 1.72562 39.9301 1.72562H37.9003V8.28087V8.27814ZM39.9301 9.99847H36.0315V0.00256348H39.9301C41.3513 0.00256348 42.4886 0.41184 43.4217 1.23039C43.9085 1.6806 44.2749 2.21402 44.5183 2.86887C44.7618 3.48415 44.8835 4.22085 44.8835 4.99984C44.8835 5.77883 44.7618 6.4746 44.5183 7.1308C44.2749 7.74608 43.9098 8.27814 43.4217 8.72835C42.9754 9.13763 42.4467 9.46505 41.8382 9.67105C41.2702 9.87569 40.6198 9.99847 39.9301 9.99847Z" fill="#045DE9"/>
<path d="M48.4493 6.76109H49.5055L50.3587 8.40093H47.5163L46.7847 9.99847H44.7144L49.7894 0.00256348H49.9517L55.0281 9.99847H52.9984L49.8706 3.73108L48.4493 6.76109Z" fill="#045DE9"/>
<path d="M67.6137 8.27814H69.6435C70.0086 8.27814 70.3331 8.23722 70.6996 8.15536C71.0647 8.07351 71.3893 7.90979 71.6746 7.66423C71.9991 7.45959 72.2425 7.09124 72.4062 6.68196C72.609 6.27269 72.6901 5.69834 72.6901 5.00256C72.6901 4.30679 72.609 3.73244 72.4062 3.32316C72.2439 2.87296 72.0005 2.54554 71.6746 2.29861C71.3906 2.09397 71.0661 1.93026 70.6996 1.8484C70.3345 1.76655 69.9694 1.72562 69.6435 1.72562H67.6137V8.28087V8.27814ZM69.6435 9.99847H65.7449V0.00256348H69.6435C71.0647 0.00256348 72.202 0.41184 73.135 1.23039C73.6218 1.6806 73.9883 2.21402 74.2317 2.86887C74.4751 3.48415 74.5968 4.22085 74.5968 4.99984C74.5968 5.77883 74.4751 6.4746 74.2317 7.1308C73.9883 7.74608 73.6232 8.27814 73.135 8.72835C72.6888 9.13763 72.1601 9.46505 71.5515 9.67105C70.9836 9.87569 70.3331 9.99847 69.6435 9.99847Z" fill="#045DE9"/>
<path d="M58.8239 5.12262H60.7333C60.8956 5.12262 61.0984 5.08169 61.2607 4.99984C61.4635 4.95891 61.6258 4.83612 61.7475 4.71334C61.9111 4.54963 62.0315 4.38592 62.1126 4.18128C62.2343 3.97664 62.2749 3.73108 62.2749 3.44322C62.2749 3.27951 62.2357 3.1158 62.1951 2.91116C62.1546 2.70652 62.114 2.54281 61.9909 2.33817C61.8692 2.17446 61.7475 2.01075 61.5447 1.88797C61.3418 1.76518 61.0579 1.68333 60.7333 1.68333H58.1343V9.99983H56.2262V0.00256348H60.7333C61.2607 0.00256348 61.707 0.0844188 62.114 0.24813C62.5602 0.41184 62.9254 0.657407 63.2107 0.9439C63.4947 1.27132 63.7381 1.64104 63.9017 2.05031C64.064 2.45959 64.1451 2.95209 64.1451 3.44322C64.1451 4.18128 63.9828 4.83612 63.6177 5.40911C63.2107 5.9821 62.7239 6.39274 62.1153 6.63831C62.9267 7.74472 63.7394 8.84977 64.5521 9.99711H62.3182C61.9125 9.46505 61.5068 8.93299 61.1404 8.39956C60.3696 7.33408 59.5988 6.22903 58.8253 5.12262H58.8239Z" fill="#045DE9"/>
</svg>
