<svg width="40" height="41" viewBox="0 0 40 41" fill="none" xmlns="http://www.w3.org/2000/svg">
<circle cx="20" cy="20.75" r="20" fill="white"/>
<path fill-rule="evenodd" clip-rule="evenodd" d="M19.9704 17.2862C19.0861 12.642 24.6887 9.87916 27.9913 13.2299C27.9913 13.2299 29.4655 12.8189 30.7634 11.9957C30.7634 11.9957 30.2914 13.5827 28.6992 14.5817C28.6992 14.5817 30.4689 14.3465 31.2353 13.8761C31.2353 13.8761 30.4689 15.4631 29.0531 16.051C29.8195 26.6912 18.3187 33.1575 9 27.8671C9 27.8671 13.6003 28.1023 15.5466 25.8681C15.5466 25.8681 12.716 26.1033 11.3002 22.6942C11.3002 22.6942 12.362 23.1053 13.4239 22.5766C13.4239 22.5766 10.1213 22.048 9.82588 18.1093C9.82588 18.1093 10.8877 18.9324 12.0676 18.6379C12.0676 18.6379 8.41109 16.4631 10.4753 12.5244C10.4753 12.5244 14.3677 17.4621 19.9714 17.2862H19.9704Z" fill="#080C18"/>
</svg>
