<svg width="28" height="28" viewBox="0 0 28 28" fill="none" xmlns="http://www.w3.org/2000/svg">
<path d="M15.1666 13.0084H8.16663" stroke="#969696" stroke-width="1.5" stroke-linecap="round" stroke-linejoin="round"/>
<path d="M2.33337 13.0084V7.61836C2.33337 5.23836 4.25838 3.31335 6.63838 3.31335H13.195C15.575 3.31335 17.5 4.79502 17.5 7.17502" stroke="#969696" stroke-width="1.5" stroke-linecap="round" stroke-linejoin="round"/>
<path d="M20.3934 14.2333C19.81 14.7933 19.53 15.6566 19.7634 16.5433C20.055 17.6283 21.1284 18.3167 22.2484 18.3167H23.3334V20.0084C23.3334 22.5867 21.245 24.675 18.6667 24.675H7.00004C4.42171 24.675 2.33337 22.5867 2.33337 20.0084V11.8417C2.33337 9.26335 4.42171 7.17502 7.00004 7.17502H18.6667C21.2334 7.17502 23.3334 9.27502 23.3334 11.8417V13.5333H22.0734C21.42 13.5333 20.825 13.79 20.3934 14.2333Z" stroke="#969696" stroke-width="1.5" stroke-linecap="round" stroke-linejoin="round"/>
<path d="M25.6666 14.7233V17.1266C25.6666 17.78 25.1299 18.3167 24.4649 18.3167H22.2132C20.9532 18.3167 19.7983 17.395 19.6933 16.135C19.6233 15.4 19.9032 14.7117 20.3932 14.2333C20.8249 13.79 21.4199 13.5333 22.0732 13.5333H24.4649C25.1299 13.5333 25.6666 14.07 25.6666 14.7233Z" stroke="#969696" stroke-width="1.5" stroke-linecap="round" stroke-linejoin="round"/>
</svg>
