<svg width="40" height="41" viewBox="0 0 40 41" fill="none" xmlns="http://www.w3.org/2000/svg">
<circle cx="20" cy="20.75" r="20" fill="white"/>
<path fill-rule="evenodd" clip-rule="evenodd" d="M13.409 13.0052C15.5488 12.8347 18.0739 12.75 20 12.75C21.9261 12.75 24.409 12.8347 26.591 13.0052C29.116 13.2175 30.4001 13.6432 30.7432 16.1523C30.9147 17.3007 31 18.8748 31 20.4907C31 22.1067 30.9147 23.7236 30.7432 24.8291C30.4011 27.3812 29.117 27.764 26.591 27.9763C24.408 28.1886 21.9251 28.2315 20 28.2315C18.0739 28.2315 15.5488 28.1886 13.408 27.9763C10.883 27.764 9.55575 27.3812 9.21367 24.8291C9.08526 23.7236 9 22.1067 9 20.4907C9 18.8748 9.08526 17.3007 9.21367 16.1523C9.55678 13.6432 10.883 13.2175 13.409 13.0052Z" fill="#080C18"/>
<path fill-rule="evenodd" clip-rule="evenodd" d="M17.9629 17.6392L23.6666 20.8772L17.9629 24.1577V17.6392Z" fill="white"/>
</svg>
